<?xml version="1.0" standalone="no"?>
<!DOCTYPE svg PUBLIC "-//W3C//DTD SVG 20010904//EN"
 "http://www.w3.org/TR/2001/REC-SVG-20010904/DTD/svg10.dtd">
<svg version="1.0" xmlns="http://www.w3.org/2000/svg"
 width="512.000000pt" height="512.000000pt" viewBox="0 0 512.000000 512.000000"
 preserveAspectRatio="xMidYMid meet">

<g transform="translate(0.000000,512.000000) scale(0.100000,-0.100000)"
fill="#000000" stroke="none">
<path d="M2355 3819 c-616 -523 -1146 -972 -1177 -997 -61 -50 -78 -82 -58
-107 23 -28 53 -15 139 58 47 40 248 210 446 378 198 168 677 574 1065 903
388 329 711 600 718 603 7 3 21 -2 31 -11 60 -55 208 -72 303 -36 l53 20 16
-22 c15 -20 15 -24 -3 -66 -27 -60 -18 -105 33 -155 37 -37 41 -39 91 -35 29
2 60 7 68 11 9 5 19 0 27 -12 10 -15 8 -26 -8 -57 -39 -74 -5 -159 74 -189 38
-14 48 -15 85 -2 37 13 43 13 56 -2 14 -16 14 -21 -4 -56 -24 -46 -25 -74 -6
-119 27 -66 102 -99 171 -76 30 10 40 10 51 -2 12 -12 11 -19 -6 -53 -33 -65
-23 -121 33 -173 31 -29 96 -39 137 -22 27 11 32 10 49 -11 18 -23 18 -24 -5
-59 -70 -106 -72 -241 -6 -348 28 -44 48 -57 76 -46 24 9 31 51 13 72 -68 75
-60 217 16 308 15 18 27 40 27 49 0 27 -109 155 -132 155 -11 0 -31 -9 -45
-20 -43 -34 -93 -21 -93 23 0 11 14 35 30 54 17 18 30 39 30 46 0 7 -25 43
-56 80 -60 73 -81 81 -124 47 -31 -25 -52 -25 -73 -2 -24 27 -21 47 13 82 17
17 30 36 30 43 0 7 -25 43 -55 80 -61 73 -83 82 -128 47 -31 -25 -49 -25 -70
-2 -25 27 -21 55 13 87 17 16 30 34 30 41 0 18 -97 137 -121 148 -15 7 -27 4
-49 -12 -76 -57 -138 8 -70 73 17 16 30 35 30 43 0 20 -107 150 -130 157 -12
4 -34 -4 -57 -19 -93 -61 -220 -49 -292 28 -14 14 -34 26 -45 26 -13 -1 -459
-373 -1141 -951z"/>
<path d="M2870 3638 c-454 -265 -1200 -700 -1659 -968 -459 -267 -839 -494
-845 -503 -7 -11 -5 -30 7 -64 37 -104 14 -199 -67 -270 -26 -23 -46 -49 -46
-61 0 -30 84 -166 105 -170 9 -2 35 4 57 14 38 17 39 17 60 -3 27 -28 18 -67
-21 -88 -16 -8 -31 -23 -34 -32 -4 -20 54 -136 84 -167 18 -19 20 -19 54 -3
62 29 95 17 95 -34 0 -20 -9 -33 -35 -49 -45 -28 -44 -45 3 -131 42 -79 66
-92 113 -65 33 19 64 14 78 -13 15 -26 3 -55 -29 -74 -46 -28 -46 -49 1 -132
24 -41 51 -77 60 -80 10 -4 32 1 50 10 41 22 77 13 85 -21 6 -22 0 -32 -35
-64 -38 -35 -40 -40 -30 -66 6 -16 27 -56 47 -89 42 -67 62 -76 112 -50 45 23
126 22 181 -2 27 -12 61 -40 84 -67 28 -34 44 -46 60 -44 30 4 3346 1940 3353
1957 3 7 -2 34 -12 60 -37 105 -9 213 73 279 23 18 41 41 41 50 0 9 -19 51
-43 92 -46 81 -48 82 -135 64 -67 -14 -86 47 -27 92 44 34 44 53 -3 133 -48
83 -61 91 -107 67 -78 -42 -121 34 -50 88 19 15 35 34 35 43 0 8 -19 49 -42
90 -41 71 -44 74 -73 69 -108 -20 -104 -20 -115 9 -12 32 -1 55 34 74 42 23
41 45 -6 129 -47 83 -69 97 -110 68 -30 -21 -51 -20 -73 4 -24 26 -13 65 24
84 46 24 45 42 -1 124 -54 95 -64 101 -125 79 -104 -37 -203 -12 -271 69 -21
26 -45 44 -57 44 -11 -1 -391 -217 -845 -482z m862 352 c56 -57 124 -84 208
-85 41 0 87 3 101 7 22 7 30 3 43 -18 16 -24 16 -26 -8 -55 -51 -61 -42 -148
21 -196 27 -21 46 -27 90 -27 73 -1 88 -20 50 -66 -21 -24 -27 -42 -27 -78 0
-59 16 -90 60 -120 27 -18 46 -23 84 -21 65 4 79 -15 46 -61 -34 -48 -38 -116
-8 -160 33 -49 82 -72 135 -65 35 5 43 3 52 -13 8 -15 7 -23 -6 -33 -21 -18
-43 -71 -43 -104 0 -41 35 -99 73 -119 25 -14 47 -18 81 -14 43 5 48 4 61 -22
13 -26 12 -29 -16 -56 -17 -16 -43 -51 -57 -79 -22 -41 -26 -64 -27 -130 0
-44 3 -92 7 -106 7 -25 -26 -45 -1614 -971 l-1621 -945 -39 38 c-69 67 -199
97 -296 70 -29 -9 -33 -7 -46 17 -13 24 -12 29 10 57 51 67 36 155 -36 203
-28 19 -44 23 -83 19 -65 -6 -78 16 -42 69 18 27 25 50 25 87 0 44 -4 53 -39
88 -36 37 -42 39 -99 39 -50 0 -63 4 -71 19 -8 14 -7 22 5 32 43 35 56 107 29
162 -25 52 -62 72 -128 72 -46 0 -61 4 -69 19 -8 13 -5 23 10 39 50 53 51 135
3 186 -33 36 -98 55 -135 41 -23 -8 -27 -6 -40 19 -14 27 -14 30 15 57 16 16
42 53 57 84 22 45 27 69 27 130 0 41 -3 87 -8 102 -6 22 -3 30 15 42 13 7 721
420 1573 916 853 496 1570 915 1595 931 25 15 46 28 48 28 2 1 17 -13 34 -29z"/>
<path d="M3509 3751 c-14 -5 -500 -285 -1080 -623 -579 -338 -1180 -688 -1334
-778 -154 -89 -293 -174 -308 -189 -62 -56 -91 -162 -67 -236 14 -42 621
-1108 648 -1139 9 -10 37 -30 62 -45 36 -21 58 -26 110 -26 63 0 71 3 175 63
1137 657 2596 1515 2626 1544 53 52 77 130 62 202 -16 74 -608 1113 -667 1171
-59 57 -148 79 -227 56z m152 -104 c17 -12 134 -205 340 -565 300 -523 314
-549 314 -599 0 -70 -21 -95 -135 -165 -52 -32 -95 -56 -96 -55 -2 1 -169 293
-372 649 l-369 646 96 56 c88 52 100 57 146 53 28 -2 62 -11 76 -20z m-27
-777 c201 -352 366 -644 366 -649 0 -8 -2116 -1247 -2140 -1254 -7 -2 -736
1256 -743 1284 -1 4 363 220 808 480 446 260 927 541 1070 625 143 84 263 153
267 153 3 1 171 -287 372 -639z m-2234 -1296 c201 -351 366 -643 368 -649 4
-16 -161 -113 -205 -121 -47 -9 -79 2 -118 39 -52 49 -637 1081 -643 1134 -7
68 24 110 131 176 51 31 94 57 97 57 3 0 170 -286 370 -636z"/>
<path d="M2266 2752 c-517 -302 -944 -556 -950 -565 -15 -23 3 -51 35 -55 17
-2 313 166 964 545 775 452 941 552 943 571 4 27 -14 52 -37 52 -9 0 -439
-247 -955 -548z"/>
<path d="M3070 2897 c-68 -40 -125 -77 -127 -82 -1 -6 6 -24 17 -42 l19 -32
45 25 44 25 132 -231 c72 -126 135 -230 138 -230 4 0 23 10 43 23 l37 22 -134
233 -133 233 30 17 c62 34 61 33 36 75 l-23 37 -124 -73z"/>
<path d="M2793 2737 c-56 -34 -105 -65 -108 -69 -9 -9 294 -538 307 -538 19 0
218 122 218 134 0 9 -18 41 -36 65 -2 2 -35 -15 -74 -39 -40 -23 -73 -40 -75
-38 -16 16 -85 151 -80 157 3 5 26 21 53 37 26 15 49 28 51 30 4 3 -38 74 -45
74 -2 0 -26 -14 -54 -31 -27 -17 -54 -28 -59 -25 -11 7 -81 130 -81 143 0 4
31 26 70 47 l69 39 -21 39 c-12 21 -24 38 -27 37 -3 0 -52 -29 -108 -62z"/>
<path d="M2587 2617 c-37 -21 -38 -23 -33 -67 3 -25 8 -90 11 -145 l7 -100
-25 40 c-13 22 -43 72 -66 112 l-41 72 -38 -21 c-20 -12 -39 -23 -41 -24 -3
-3 263 -477 298 -532 7 -11 16 -10 50 8 23 11 41 24 39 28 -2 4 -22 41 -44 82
-40 72 -62 140 -46 140 4 0 51 -36 105 -80 l97 -80 41 20 c22 12 39 25 37 30
-2 4 -62 56 -135 114 -73 58 -136 114 -142 123 -5 10 -12 82 -16 161 -4 78
-10 142 -14 142 -3 -1 -23 -11 -44 -23z"/>
<path d="M2195 2391 c-23 -10 -53 -33 -69 -52 -25 -29 -28 -39 -24 -84 4 -40
22 -80 92 -205 105 -185 128 -216 171 -237 78 -37 205 41 205 127 0 41 -68
174 -83 163 -6 -5 -24 -17 -39 -26 l-27 -17 30 -56 c26 -51 28 -59 16 -78 -17
-25 -52 -32 -72 -16 -17 14 -190 315 -199 345 -7 24 1 38 29 53 27 14 49 1 80
-48 l25 -39 35 20 c19 12 35 26 35 32 0 24 -66 108 -97 122 -40 19 -59 19
-108 -4z"/>
<path d="M2821 1805 c-514 -300 -940 -550 -948 -556 -29 -25 -5 -86 30 -77 8
2 438 250 956 552 605 354 943 556 947 568 6 20 -20 58 -40 58 -6 0 -431 -245
-945 -545z"/>
<path d="M1975 2258 c-72 -38 -80 -9 87 -300 83 -145 154 -267 159 -272 8 -9
79 30 79 44 0 6 -295 529 -303 537 -1 1 -11 -3 -22 -9z"/>
<path d="M1743 2123 l-131 -77 21 -37 22 -38 44 25 c34 19 46 22 53 12 4 -7
63 -109 129 -226 67 -117 125 -215 130 -218 10 -6 65 21 74 37 6 8 -86 176
-238 436 l-18 32 45 26 45 26 -21 37 c-12 20 -22 38 -23 39 -1 1 -60 -32 -132
-74z"/>
</g>
</svg>
